<svg width="240px" height="240px" viewBox="0 0 240 240" version="1.1" xmlns="http://www.w3.org/2000/svg" xmlns:xlink="http://www.w3.org/1999/xlink">
    <g id="Logos" stroke="none" stroke-width="1" fill="none" fill-rule="evenodd">
        <g id="Logo" transform="translate(-0.000000, 0.000000)">
            <g id="Base">
                <path d="M129.453798,68.6354899 C130.558367,68.6354899 131.453798,69.5309204 131.453798,70.6354899 L131.453794,184.79749 L211.130303,184.797631 C212.234872,184.797631 213.130303,185.693061 213.130303,186.797631 L213.130303,237.248634 C213.130303,238.353204 212.234872,239.248634 211.130303,239.248634 L97.1531286,239.248634 C96.0485591,239.248634 95.1531286,238.353204 95.1531286,237.248634 L95.1527941,219.28249 L79.0027941,219.283266 C77.8982246,219.283266 77.0027941,218.387836 77.0027941,217.283266 L77.0027941,70.6354899 C77.0027941,69.5309204 77.8982246,68.6354899 79.0027941,68.6354899 L129.453798,68.6354899 Z" id="Combined-Shape" fill="#F4B400"></path>
                <path d="M104.387249,18.3581269 C105.491819,18.3581269 106.387249,19.2535574 106.387249,20.3581269 L106.387246,167.190127 L186.063754,167.19087 C187.168324,167.19087 188.063754,168.0863 188.063754,169.19087 L188.063754,219.641873 C188.063754,220.746443 187.168324,221.641873 186.063754,221.641873 L53.9362457,221.641873 C52.8316762,221.641873 51.9362457,220.746443 51.9362457,219.641873 L51.9362457,20.3581269 C51.9362457,19.2535574 52.8316762,18.3581269 53.9362457,18.3581269 L104.387249,18.3581269 Z" id="Combined-Shape" fill="#4285F4" transform="translate(120.000000, 120.000000) rotate(45.000000) translate(-120.000000, -120.000000) "></path>
            </g>
            <g id="Intersect" transform="translate(77.002684, 35.964888)" fill="#6E4FB0">
                <path d="M52.4511132,0 C53.5556827,-2.02906125e-16 54.4511132,0.8954305 54.4511132,2 L54.451,53.329 L0.00318605815,107.7779 L56.3424604,164.118225 C57.123509,164.899273 57.123509,166.165603 56.3424604,166.946652 L20.6682137,202.620899 C19.8871651,203.401947 18.6208352,203.401947 17.8397866,202.620899 L0,184.781 L0,30.776 L30.776,0 L52.4511132,0 Z" id="Combined-Shape"></path>
            </g>
        </g>
    </g>
</svg>