<svg width="1920" height="1879" viewBox="0 0 1920 1879" fill="none" xmlns="http://www.w3.org/2000/svg">
<path d="M1880 1359H1756.54C1694.15 1359 1640.84 1403.99 1630.36 1465.5L1560 1878.36H1683.46C1745.85 1878.36 1799.16 1833.38 1809.64 1771.87L1880 1359Z" fill="#BB342F"/>
<path d="M1560 1359H1436.54C1374.15 1359 1320.84 1403.99 1310.36 1465.5L1240 1878.36H1363.46C1425.85 1878.36 1479.16 1833.38 1489.64 1771.87L1560 1359Z" fill="#D37236"/>
<path d="M1133.35 626.495C1143.83 564.988 1197.14 520 1259.53 520H1383L1169.65 1771.84C1159.17 1833.35 1105.86 1878.34 1043.47 1878.34H920L1133.35 626.495Z" fill="#DCA141"/>
<path d="M1000 841H876.529C814.14 841 760.84 885.98 750.351 947.481L680 1360H803.47C865.86 1360 919.16 1315.02 929.649 1253.52L1000 841Z" fill="#73AB92"/>
<path d="M680 840H556.529C494.14 840 440.84 884.98 430.351 946.481L360 1359H483.47C545.86 1359 599.16 1314.02 609.649 1252.52L680 840Z" fill="#3D87F5"/>
<path d="M253.347 106.49C263.831 44.9849 317.134 0 379.526 0L503 0L289.654 1251.51C279.169 1313.02 225.866 1358 163.474 1358H40L253.347 106.49Z" fill="#555DF0"/>
</svg>
